<svg width="130" height="24" viewBox="0 0 130 24" fill="none" xmlns="http://www.w3.org/2000/svg">
<g clip-path="url(#clip0_2308_25)">
<path d="M14 18.1939V24H0V1H6.15374V18.1939H14Z" fill="#FFC40B"/>
<path d="M30.9099 20.2653H22.9099L21.6583 24H15L23.8611 1H29.9387L39 24H32.1514L30.9099 20.2653ZM26.8949 8.18367L24.4218 15.3061H29.388L26.8949 8.18367Z" fill="#FFC40B"/>
<path d="M62 1V24H56.8955L47.9901 11.5204V24H42V1H47.403L56.0099 13.0612V1H62Z" fill="#FFC40B"/>
<path d="M87 12.4796C87 19.1939 82.1118 24 75.2299 24H66V1H75.2299C82.1321 1 87 5.7551 87 12.4796ZM80.5533 12.4796C80.5533 9.07143 78.3065 6.80612 74.9263 6.80612H72.3051V18.2041H74.9263C78.3065 18.2041 80.5533 15.8776 80.5533 12.4898V12.4796Z" fill="#FFC40B"/>
<path d="M103.903 20.2653H95.9066L94.6555 24H88L96.8674 1H102.942L112 24H105.154L103.913 20.2653H103.903ZM99.8999 8.18367L97.4279 15.3061H102.392L99.8999 8.18367Z" fill="#FFC40B"/>
<path d="M112.01 16.0372H118.385C118.385 17.6725 119.618 18.4647 121.03 18.4647C122.323 18.4647 123.556 17.7639 123.556 16.5146C123.556 15.0825 121.815 14.6661 119.677 14.138C116.435 13.3153 112.298 12.2996 112.298 7.08929C112.298 2.57977 115.54 0 120.831 0C126.201 0 129.284 2.81337 129.284 7.47524H123.088C123.088 6.03301 122.034 5.35252 120.751 5.35252C119.648 5.35252 118.593 5.84003 118.593 6.90648C118.593 8.20652 120.284 8.63309 122.392 9.18155C125.694 10.055 130 11.1722 130 16.4029C130 21.6335 126.241 24 121.03 24C115.54 24 112 21.0343 112 16.0474L112.01 16.0372Z" fill="#FFC40B"/>
</g>
<defs>
<clipPath id="clip0_2308_25">
<rect width="130" height="24" fill="white"/>
</clipPath>
</defs>
</svg>
